# xmcd
#
# Track frame offsets:
#	150
#	18462
#	39582
#
# Disc length: 849 seconds
#
# Revision: 0
# Processed by: cddbd v1.4PL0 Copyright (c) Steve Scherf et al.
# Submitted via: dBpowerAMP V4.0
#
DISCID=1c034f03
DTITLE=Lynden David Hall - Sexey Cinderella
DYEAR=1900
DGENRE=
TTITLE0=Sexey Cindellera
TTITLE1=Perfect Love
TTITLE2=Medicine 4 My Pain
EXTD=
EXTT0=
EXTT1=
EXTT2=
PLAYORDER=
